<?xml version="1.0" standalone="no"?>
<!DOCTYPE svg PUBLIC "-//W3C//DTD SVG 20010904//EN"
 "http://www.w3.org/TR/2001/REC-SVG-20010904/DTD/svg10.dtd">
<svg version="1.0" xmlns="http://www.w3.org/2000/svg"
 width="165.000000pt" height="165.000000pt" viewBox="0 0 165.000000 165.000000"
 preserveAspectRatio="xMidYMid meet">
<metadata>
Created by potrace 1.14, written by Peter Selinger 2001-2017
</metadata>
<g transform="translate(0.000000,165.000000) scale(0.100000,-0.100000)"
fill="#000000" stroke="none">
<path d="M991 1378 c-1 -44 -7 -98 -21 -183 -26 -169 -21 -733 8 -779 3 -6 5
-28 5 -50 -1 -23 2 -45 6 -51 4 -5 6 -25 6 -43 -1 -20 3 -32 12 -32 9 0 11 16
8 62 -8 91 -12 271 -7 285 2 7 8 10 13 7 5 -3 7 -9 4 -14 -3 -4 2 -10 10 -14
8 -3 15 -12 15 -21 0 -8 5 -15 10 -15 6 0 10 -6 10 -14 0 -27 19 -27 57 -1 21
14 43 25 49 25 7 0 14 7 18 15 3 8 12 15 21 15 8 0 15 5 15 10 0 6 5 10 11 10
6 0 63 34 126 75 62 41 118 75 123 75 6 0 10 5 10 11 0 5 4 8 9 5 5 -4 11 -3
13 1 4 10 53 43 92 63 16 8 30 20 33 27 6 15 -21 71 -50 103 -23 26 -133 189
-135 203 -1 4 -11 16 -22 27 l-20 20 -43 -22 c-23 -13 -44 -25 -47 -28 -3 -3
-14 -10 -25 -17 -11 -6 -60 -37 -108 -67 -49 -31 -92 -56 -97 -56 -4 0 -11 -7
-14 -16 -3 -8 -10 -12 -16 -9 -5 3 -10 1 -10 -4 0 -6 -7 -11 -15 -11 -8 0 -15
-4 -15 -10 0 -5 -6 -10 -13 -10 -9 0 -12 39 -11 168 1 92 3 167 4 167 2 0 4
28 5 63 1 42 -3 62 -11 62 -6 0 -12 -15 -13 -32z"/>
<path d="M46 1381 c-4 -5 -3 -17 1 -28 3 -10 2 -15 -2 -10 -12 10 -45 -22 -45
-44 0 -10 5 -21 11 -25 7 -4 110 -7 230 -7 173 0 219 -3 219 -13 0 -23 18 -25
38 -4 15 16 30 20 75 19 31 -1 57 -6 57 -11 0 -5 7 -5 18 0 9 5 41 9 69 10 29
0 57 4 63 7 14 9 10 117 -4 112 -6 -2 -11 -21 -10 -43 1 -44 -8 -54 -51 -53
-23 0 -35 7 -50 32 -16 25 -28 32 -53 33 -28 0 -32 -3 -38 -33 -6 -30 -10 -33
-40 -33 -32 0 -34 2 -34 35 0 19 -4 35 -9 35 -11 0 -21 -25 -21 -51 0 -18 -8
-19 -111 -19 l-111 0 3 38 c1 20 1 43 0 50 -2 17 -28 15 -35 -4 -9 -23 -8 -26
6 -18 8 5 9 2 5 -10 -4 -10 -7 -26 -7 -37 0 -17 -8 -19 -65 -19 l-65 0 0 50
c0 43 -3 50 -19 50 -11 0 -22 -4 -25 -9z m18 -76 c-6 -16 -44 -21 -44 -7 0 14
12 22 31 22 12 0 16 -5 13 -15z m586 6 c0 -6 -4 -13 -10 -16 -5 -3 -10 1 -10
9 0 9 5 16 10 16 6 0 10 -4 10 -9z"/>
<path d="M800 1330 c0 -33 4 -60 10 -60 6 0 10 27 10 60 0 33 -4 60 -10 60 -6
0 -10 -27 -10 -60z"/>
<path d="M7 1224 c-12 -13 -8 -111 6 -117 6 -2 84 -4 171 -3 143 1 162 -1 177
-17 18 -20 59 -16 59 6 0 9 47 12 180 11 201 -1 191 -5 188 74 -1 26 -6 42
-14 42 -8 0 -11 -14 -11 -41 l2 -41 -47 -2 c-34 -1 -44 2 -37 10 24 29 -25 64
-69 50 -24 -8 -37 -37 -21 -46 17 -11 -5 -16 -52 -12 -37 4 -39 6 -39 38 0 20
5 34 13 34 8 0 7 3 -3 9 -22 15 -30 4 -30 -42 l0 -42 -39 0 c-36 -1 -39 1 -38
25 3 33 -25 34 -33 1 l-6 -24 -157 1 c-86 0 -164 1 -171 1 -10 1 -16 15 -18
47 -2 25 -6 42 -11 38z m648 -64 c8 -13 -15 -13 -35 0 -12 8 -11 10 7 10 12 0
25 -4 28 -10z"/>
<path d="M800 1165 c0 -42 4 -64 10 -60 6 3 10 30 10 60 0 30 -4 57 -10 60 -6
4 -10 -18 -10 -60z"/>
<path d="M40 1050 c0 -5 8 -10 18 -11 9 -1 2 -6 -16 -12 -36 -11 -52 -47 -33
-71 16 -19 606 -23 628 -4 9 8 20 8 36 1 12 -6 42 -10 67 -9 l45 1 1 58 c1 39
-2 57 -10 54 -6 -2 -11 -21 -11 -42 0 -48 -30 -59 -39 -15 -10 53 -74 45 -92
-12 -8 -27 -27 -17 -36 21 -11 39 -28 32 -28 -11 0 -38 -10 -32 -13 8 -1 15
-8 29 -15 32 -7 2 -12 0 -11 -5 1 -4 0 -11 -1 -15 -4 -13 -7 -27 -9 -38 -2
-18 -22 -11 -20 8 1 9 1 26 0 37 -1 26 -24 4 -26 -27 -1 -12 -7 -24 -15 -26
-10 -4 -12 6 -8 42 5 44 5 46 -21 46 -24 -1 -24 -2 -9 -14 10 -7 14 -16 10
-20 -4 -4 -7 -17 -7 -29 0 -31 -30 -28 -31 3 -1 13 -6 26 -12 28 -6 2 -8 10
-5 18 3 9 -1 14 -13 14 -24 -1 -57 -63 -42 -78 8 -8 -15 -11 -83 -9 l-94 2 -1
39 c0 22 -6 42 -12 44 -8 2 -12 -11 -12 -42 0 -34 -4 -46 -15 -46 -15 0 -19
20 -15 68 1 17 -4 22 -24 22 -14 0 -26 -4 -26 -10z m330 -50 c0 -5 -5 -10 -11
-10 -5 0 -7 5 -4 10 3 6 8 10 11 10 2 0 4 -4 4 -10z m330 -11 c0 -12 -5 -16
-15 -13 -8 4 -15 12 -15 18 0 7 7 13 15 13 8 0 15 -8 15 -18z m-630 1 c0 -15
-26 -23 -41 -14 -9 5 -7 10 7 15 27 11 34 10 34 -1z"/>
<path d="M800 1000 c0 -33 4 -60 10 -60 6 0 10 27 10 60 0 33 -4 60 -10 60 -6
0 -10 -27 -10 -60z"/>
<path d="M77 896 c-7 -17 -6 -17 31 -21 16 -2 22 2 20 14 -4 21 -44 26 -51 7z"/>
<path d="M194 899 c-4 -7 -8 -32 -9 -56 -2 -44 14 -66 41 -56 6 2 14 -6 17
-18 3 -12 10 -18 17 -14 6 4 9 12 7 18 -2 7 2 17 8 23 6 7 9 28 7 48 -3 30 -7
34 -18 25 -8 -6 -14 -20 -14 -30 0 -11 -7 -19 -15 -19 -11 0 -15 12 -15 45 0
43 -11 58 -26 34z"/>
<path d="M302 893 c-10 -19 -10 -82 0 -98 4 -6 48 -9 105 -8 116 3 140 3 216
0 32 -2 61 1 63 5 3 5 11 5 17 1 7 -4 36 -7 64 -8 l53 0 0 63 c0 58 -13 83
-23 45 -4 -17 -5 -17 -6 0 -2 34 -32 14 -38 -27 -5 -30 -11 -31 -19 -2 -3 14
-10 26 -15 26 -19 0 -20 -29 -4 -54 15 -23 15 -26 2 -26 -11 0 -18 14 -23 45
-3 25 -10 45 -15 45 -5 0 -12 0 -16 0 -4 0 -8 -6 -9 -15 -1 -8 1 -15 6 -15 4
0 8 -11 8 -25 0 -17 -6 -25 -19 -25 -14 0 -17 8 -16 43 2 37 -1 42 -20 45 -18
3 -23 -2 -23 -17 0 -12 4 -21 9 -21 4 0 6 -11 3 -25 -4 -22 -22 -36 -22 -17 0
4 -13 13 -30 19 -17 6 -34 23 -40 37 -12 33 -26 33 -34 2 -3 -13 -9 -31 -12
-39 -4 -11 2 -17 23 -20 15 -2 -14 -5 -64 -6 l-93 -1 0 45 c0 46 -12 58 -28
28z"/>
<path d="M11 867 c-15 -15 -14 -62 2 -74 9 -6 125 -10 157 -4 3 1 5 13 4 29
-1 15 -3 35 -3 46 -1 15 -4 16 -16 6 -8 -7 -15 -21 -15 -31 0 -17 -8 -19 -60
-19 -33 0 -60 4 -60 10 0 6 5 10 11 10 13 0 44 30 32 31 -4 0 -15 2 -25 4 -9
2 -21 -2 -27 -8z"/>
<path d="M409 763 c-1 -4 -1 -11 0 -15 0 -5 -3 -8 -8 -8 -5 0 -14 -13 -21 -30
-7 -16 -18 -30 -26 -30 -8 0 -12 -11 -12 -29 1 -15 -6 -38 -14 -50 -14 -20
-16 -20 -35 -4 -11 10 -22 24 -24 32 -3 8 -13 15 -22 17 -14 2 -17 -7 -18 -47
-1 -27 -2 -53 -3 -59 -1 -5 4 -10 9 -10 6 -1 12 14 15 31 l5 33 28 -37 c29
-38 46 -47 48 -24 0 6 9 30 19 52 l18 40 -5 -45 c-3 -25 -9 -49 -14 -55 -21
-22 -8 -35 37 -35 l46 0 -8 33 c-11 49 -12 110 -2 130 8 15 5 20 -11 24 -26 7
-26 4 -1 47 14 22 17 37 10 41 -5 3 -11 3 -11 -2z"/>
<path d="M452 659 c-18 -19 -19 -23 -5 -50 8 -16 25 -32 38 -35 32 -8 46 -26
35 -44 -6 -8 -10 -10 -10 -5 0 6 -5 3 -10 -5 -7 -11 -10 -11 -10 -2 0 7 -4 10
-10 7 -5 -3 -10 3 -10 14 0 25 -16 36 -24 15 -13 -34 -6 -52 23 -59 46 -10 79
3 85 33 9 52 4 64 -36 80 -25 10 -38 21 -38 34 0 22 19 20 41 -4 15 -16 39
-25 39 -14 0 3 -4 16 -10 30 -8 21 -16 26 -44 26 -23 0 -42 -7 -54 -21z"/>
<path d="M570 671 c0 -6 5 -13 10 -16 6 -3 10 -35 10 -71 0 -41 -4 -63 -10
-59 -5 3 -10 -3 -10 -13 0 -19 8 -20 117 -21 123 -1 133 3 133 47 0 27 -16 29
-25 4 -7 -26 -56 -23 -66 3 -11 30 -10 35 6 35 8 0 15 -4 15 -10 0 -5 6 -10
13 -10 8 0 14 12 14 30 0 18 -6 30 -14 30 -7 0 -13 -4 -13 -10 0 -5 -7 -10
-16 -10 -11 0 -14 8 -12 27 4 32 29 38 57 12 27 -26 31 -24 31 11 l0 30 -68 0
-69 0 1 -77 c1 -72 -1 -78 -19 -78 -18 0 -20 7 -21 63 0 45 3 65 13 69 23 9 5
20 -37 21 -22 1 -40 -2 -40 -7z"/>
<path d="M0 633 c0 -7 7 -13 15 -13 11 0 15 -12 15 -44 0 -46 16 -69 31 -45 5
8 7 31 5 52 -3 30 -1 37 14 37 13 0 19 -11 24 -45 4 -25 10 -45 14 -46 4 0 18
-2 31 -5 37 -7 61 22 61 71 0 29 -5 45 -15 48 -19 8 -23 0 -20 -46 2 -34 0
-38 -19 -35 -17 2 -22 11 -24 44 l-3 40 -64 0 c-45 -1 -65 -5 -65 -13z"/>
<path d="M1 410 c0 -48 4 -70 12 -70 7 0 12 14 13 30 1 17 -3 30 -8 30 -5 0
-7 4 -3 10 3 5 13 6 22 3 12 -5 15 -2 10 10 -4 11 -2 14 9 10 7 -3 14 -9 14
-14 0 -12 43 -7 52 6 5 6 8 6 8 -1 0 -16 50 -11 60 6 8 13 13 -4 22 -76 2 -17
7 -20 24 -14 17 7 20 15 17 34 -3 14 -11 26 -19 26 -7 0 -16 5 -20 12 -5 8 -2
9 10 5 14 -6 17 -3 12 10 -5 16 -5 16 6 3 10 -12 33 -16 91 -16 42 0 77 4 77
9 0 4 9 3 19 -3 14 -7 22 -7 27 1 5 8 9 8 14 -1 4 -7 13 -9 19 -6 6 4 9 12 6
17 -9 13 4 11 19 -4 10 -10 52 -13 160 -12 85 1 143 -2 137 -8 -4 -4 -30 -9
-56 -10 -31 -1 -50 -7 -53 -16 -3 -8 0 -11 7 -7 7 5 11 -1 11 -13 0 -15 6 -21
23 -20 12 0 16 3 10 6 -7 2 -13 12 -13 20 0 9 6 13 14 10 8 -3 17 -1 19 6 3 7
8 5 12 -7 5 -11 3 -21 -6 -27 -10 -6 -5 -9 17 -9 l31 0 0 70 c1 66 -1 70 -22
70 -18 0 -22 -4 -18 -20 3 -12 0 -20 -8 -20 -7 0 -9 3 -6 7 4 3 2 12 -4 20 -9
10 -54 13 -200 13 -181 -1 -189 -2 -189 -20 0 -11 -4 -20 -9 -20 -5 0 -8 8 -7
18 1 14 -8 17 -56 18 -34 1 -58 -2 -58 -8 0 -6 -6 -6 -14 1 -11 9 -20 9 -35 2
-25 -14 -34 -14 -26 -1 4 6 -15 10 -49 10 -34 0 -57 -5 -60 -12 -5 -10 -7 -10
-12 0 -3 6 -16 12 -29 12 -23 0 -24 -3 -24 -70z m216 38 c-3 -8 -6 -5 -6 6 -1
11 2 17 5 13 3 -3 4 -12 1 -19z m390 0 c-3 -8 -6 -5 -6 6 -1 11 2 17 5 13 3
-3 4 -12 1 -19z m100 0 c-3 -8 -6 -5 -6 6 -1 11 2 17 5 13 3 -3 4 -12 1 -19z
m-533 -9 c-8 -14 -24 -10 -24 6 0 9 6 12 15 9 8 -4 12 -10 9 -15z m137 -2
c-13 -13 -26 -3 -16 12 3 6 11 8 17 5 6 -4 6 -10 -1 -17z"/>
<path d="M90 394 c0 -14 -3 -15 -12 -6 -20 20 -33 13 -34 -18 -1 -20 4 -30 13
-30 8 0 11 5 8 10 -3 6 -2 10 4 10 5 0 13 -4 16 -10 3 -5 10 -10 16 -10 12 0
12 57 -1 65 -5 3 -10 -2 -10 -11z"/>
<path d="M353 403 c-7 -3 -13 -18 -13 -34 0 -24 4 -29 23 -29 20 0 24 5 24 30
0 30 -12 41 -34 33z"/>
<path d="M452 403 c-6 -3 -9 -10 -6 -16 5 -8 2 -8 -7 1 -22 20 -38 14 -35 -13
4 -33 15 -43 26 -25 7 10 10 11 10 3 0 -25 19 -12 25 18 8 34 6 38 -13 32z"/>
<path d="M494 402 c-5 -4 -10 -20 -9 -35 0 -25 3 -28 29 -25 38 4 46 40 12 56
-12 5 -27 7 -32 4z m36 -26 c0 -3 -4 -8 -10 -11 -5 -3 -10 -1 -10 4 0 6 5 11
10 11 6 0 10 -2 10 -4z"/>
<path d="M572 378 c-12 -34 -7 -52 8 -28 7 10 10 11 10 3 0 -7 5 -13 11 -13 7
0 9 10 4 28 -10 42 -20 45 -33 10z"/>
<path d="M130 370 c0 -25 4 -30 24 -30 16 0 27 7 31 20 9 27 -1 40 -31 40 -20
0 -24 -5 -24 -30z m37 -5 c0 -8 -4 -15 -9 -15 -4 0 -8 7 -8 15 0 8 4 15 8 15
5 0 9 -7 9 -15z"/>
<path d="M270 370 c0 -24 4 -30 21 -30 11 0 18 4 15 9 -3 5 1 12 10 15 13 5
14 9 4 21 -7 8 -21 15 -31 15 -14 0 -19 -7 -19 -30z"/>
<path d="M635 392 c-3 -3 -5 -16 -5 -28 0 -19 5 -23 30 -22 26 1 30 5 30 28 0
23 -4 28 -25 28 -13 0 -27 -3 -30 -6z"/>
<path d="M0 293 c0 -23 5 -33 16 -33 8 0 12 5 9 10 -3 6 1 10 9 10 8 0 18 -4
21 -10 9 -14 42 -12 48 3 4 10 6 10 6 0 1 -7 10 -13 21 -13 15 0 20 7 20 26 0
15 4 23 10 19 6 -4 9 -14 8 -23 -2 -12 5 -18 23 -20 23 -3 25 0 21 27 -5 37
-15 41 -124 39 l-88 -2 0 -33z m137 -5 c-3 -7 -5 -2 -5 12 0 14 2 19 5 13 2
-7 2 -19 0 -25z m-57 -3 c0 -8 -2 -15 -4 -15 -2 0 -6 7 -10 15 -3 8 -1 15 4
15 6 0 10 -7 10 -15z"/>
<path d="M230 295 l0 -35 71 0 70 0 -3 32 c-3 30 -5 32 -51 34 -40 3 -47 1
-38 -10 9 -11 8 -18 -4 -30 -23 -23 -28 -20 -23 14 3 20 0 30 -9 30 -8 0 -13
-13 -13 -35z"/>
<path d="M389 312 c6 -11 6 -24 0 -35 -10 -16 -3 -17 95 -16 60 1 106 6 106
12 0 5 -7 7 -15 3 -9 -3 -15 0 -15 9 0 8 9 15 20 15 13 0 20 -7 20 -20 0 -11
6 -20 14 -20 9 0 12 8 8 25 -3 20 -1 24 11 19 9 -3 14 -13 12 -23 -2 -14 6
-17 52 -19 35 -2 52 1 48 8 -3 5 -2 10 4 10 5 0 13 -4 16 -10 3 -6 20 -10 36
-10 28 0 30 2 27 33 -2 27 -7 32 -28 32 -14 0 -28 -4 -32 -10 -5 -6 -12 -5
-20 3 -17 17 -28 15 -22 -5 5 -17 5 -17 -6 0 -12 19 -40 23 -40 6 0 -8 -4 -8
-14 0 -16 13 -116 11 -116 -3 0 -6 -5 -5 -12 2 -7 7 -22 12 -34 12 -17 0 -20
-5 -17 -24 3 -15 -1 -25 -12 -30 -14 -5 -16 -1 -10 24 7 30 7 30 -40 30 -41 0
-45 -2 -36 -18z m308 -34 c-3 -7 -5 -2 -5 12 0 14 2 19 5 13 2 -7 2 -19 0 -25z
m-157 12 c0 -5 -2 -10 -4 -10 -3 0 -8 5 -11 10 -3 6 -1 10 4 10 6 0 11 -4 11
-10z"/>
</g>
</svg>
